PathFileType	4	(X/Y/Z)	walk-thru1-3-TP.trc
DataRate	CameraRate	NumFrames	NumMarkers	Units	OrigDataRate	OrigDataStartFrame	OrigNumFrames
120.00	120.00	       5	60	mm	120.00	224	       597
Frame#	Time	Top.Head			Front.Head			Rear.Head			Jaw			C7			R.Clavicle			L.Clavicle			R.Shoulder			L.Shoulder			R.Scapula			L.Scapula			R.Scap.Inf			R.Biceps.Lateral			R.Elbow			R.Elbow.Medial			R.Forearm			R.Ulna			R.Radius			R.Wrist			R.Thumb.M1			R.Thumb.M2			R.Thumb.M3			R.Finger3.M1			R.Finger3.M2			R.Finger3.M3			L.Biceps.Lateral			L.Elbow			L.Elbow.Medial			L.Forearm			L.Ulna			L.Radius			L.Wrist			L.Thumb.M1			L.Thumb.M2			L.Thumb.M3			L.Finger3.M1			L.Finger3.M2			L.Finger3.M3			V.Sacral			R.ASIS			L.ASIS			R.Thigh			R.Thigh.Front			R.Knee			R.Knee.Medial			R.Shank			R.Ankle			R.Ankle.Medial			R.Heel			R.Toe			R.MedFoot			L.Thigh			L.Knee			L.Knee.Medial			L.Shank			L.Ankle			L.Ankle.Medial			L.Heel			L.Toe			L.MedFoot			V_mid_ASIS			V_R_Knee_JC			V_L_Knee_JC			V_R_Elbow_JC			V_L_Elbow_JC			V_R_Ankle_JC			V_L_Ankle_JC			V_R_Wrist_JC			V_L_Wrist_JC			V_R_ScaTrpz_1stMC_JC			V_R_1stMC_1stPP_JC			V_R_1stPP_1stDP_JC			V_R_LunCap_3rdMC_JC			V_R_3rdMC_3rdPP_JC			V_R_3rdPP_3rdMP_JC			V_R_3rdMP_3rdDP_JC			V_L_ScaTrpz_1stMC_JC			V_L_1stMC_1stPP_JC			V_L_1stPP_1stDP_JC			V_L_LunCap_3rdMC_JC			V_L_3rdMC_3rdPP_JC			V_L_3rdPP_3rdMP_JC			V_L_3rdMP_3rdPP_JC			V_ROOT_JC			V_R_Hip_JC			V_L_Hip_JC			V_R_GlenHum_JC			V_L_GlenHum_JC			V_ForeHead_Ctr			V_Vertex			V_Sagit_Lambdoid_Suture			V_R_FrontoTemp			V_L_FrontoTemporal			V_R_ParietalOccip			V_L_ParietalOcciptal			V_R_Temporal			V_L_Temporal			V_mid_FrontRearHead			V_mid_RLGlenHumCtrs			V_C7_vert			V_C1_vert			V_Mid_Hip			
		X1	Y1	Z1	X2	Y2	Z2	X3	Y3	Z3	X4	Y4	Z4	X5	Y5	Z5	X6	Y6	Z6	X7	Y7	Z7	X8	Y8	Z8	X9	Y9	Z9	X10	Y10	Z10	X11	Y11	Z11	X12	Y12	Z12	X13	Y13	Z13	X14	Y14	Z14	X15	Y15	Z15	X16	Y16	Z16	X17	Y17	Z17	X18	Y18	Z18	X19	Y19	Z19	X20	Y20	Z20	X21	Y21	Z21	X22	Y22	Z22	X23	Y23	Z23	X24	Y24	Z24	X25	Y25	Z25	X26	Y26	Z26	X27	Y27	Z27	X28	Y28	Z28	X29	Y29	Z29	X30	Y30	Z30	X31	Y31	Z31	X32	Y32	Z32	X33	Y33	Z33	X34	Y34	Z34	X35	Y35	Z35	X36	Y36	Z36	X37	Y37	Z37	X38	Y38	Z38	X39	Y39	Z39	X40	Y40	Z40	X41	Y41	Z41	X42	Y42	Z42	X43	Y43	Z43	X44	Y44	Z44	X45	Y45	Z45	X46	Y46	Z46	X47	Y47	Z47	X48	Y48	Z48	X49	Y49	Z49	X50	Y50	Z50	X51	Y51	Z51	X52	Y52	Z52	X53	Y53	Z53	X54	Y54	Z54	X55	Y55	Z55	X56	Y56	Z56	X57	Y57	Z57	X58	Y58	Z58	X59	Y59	Z59	X60	Y60	Z60	

224	1.858	647.91473	-19.71552	1783.55774	542.57300	-11.23700	1666.69617	776.07941	-26.31909	1704.93921	624.73505	-23.36258	1488.29004	863.04602	-19.86200	1577.27966	759.81604	96.26450	1498.35217	757.60590	-148.06056	1488.32227	808.47821	202.96603	1487.39185	808.07837	-250.77873	1488.13635	924.55823	77.57715	1484.95996	930.11407	-114.79938	1479.98450	952.21442	80.41041	1394.50745	840.33752	238.82826	1346.98132	897.87054	271.65799	1164.29431	898.12659	174.12444	1153.70618	800.34039	260.44431	1099.51941	853.26086	275.89832	964.73779	745.59265	256.22809	933.71948	734.12469	304.18115	912.12500	723.36700	253.00424	884.75928	725.27179	234.59824	833.06812	729.39368	244.28250	781.73138	716.62921	330.46854	834.27661	754.89258	305.44708	767.00824	783.88782	254.06345	794.90540	870.34161	-276.63303	1344.63464	939.46643	-282.29266	1175.56421	947.94342	-187.69249	1153.40491	858.78021	-284.87619	1090.89844	926.49902	-304.21463	988.23212	833.28174	-287.65714	928.19751	857.54004	-327.91928	895.52356	811.42346	-288.34091	871.37219	795.00763	-262.27112	826.14246	789.44794	-264.41724	776.26276	837.62994	-339.38968	795.71692	838.90033	-306.70129	737.17615	844.50348	-247.69725	739.56824	971.32465	-19.16642	1121.51270	771.51770	166.57674	1065.15955	779.58612	-185.62308	1073.80981	760.83478	148.51912	687.02612	687.33783	52.89605	594.01770	725.30957	116.46178	530.77087	748.45496	8.57025	530.20221	721.00458	69.76622	313.30014	811.34052	106.36264	84.88575	802.17444	3.46056	106.93416	875.22546	63.78795	47.81712	642.11182	63.28219	42.59500	706.17041	27.07901	80.43658	758.41895	-200.68094	684.88513	745.90881	-193.64481	532.24939	748.93427	-83.38312	511.57187	860.34070	-156.06335	348.48740	1091.87878	-173.83070	224.04352	1032.29248	-86.03951	208.99014	1136.64380	-102.28588	223.05493	996.23773	-165.22917	69.06268	999.66248	-126.74280	139.37222																																																																																																																															
225	1.867	642.66876	-18.97427	1783.86169	537.17432	-11.22982	1667.15405	771.95795	-25.12182	1705.56287	619.20239	-21.55705	1488.42749	859.25970	-19.87729	1578.02197	755.86487	97.91487	1498.28162	753.24103	-146.82689	1489.14417	804.72009	203.90685	1487.94458	803.77917	-250.15898	1489.05298	919.64386	78.53487	1485.09460	925.59332	-114.29064	1480.55383	947.61768	81.60052	1394.40869	835.34338	239.17099	1347.57251	890.97858	273.37552	1164.44910	890.56610	176.48756	1152.85046	792.66296	262.40277	1101.08960	845.16486	279.60071	965.69458	736.25653	256.64554	935.15839	726.48651	304.80182	911.31293	718.53320	254.46329	885.82336	717.69696	234.34132	835.26202	724.46838	240.61786	784.12842	707.52332	331.11224	834.21393	749.23254	305.74982	767.71826	776.54041	254.24556	797.55359	866.53906	-274.61209	1344.89380	935.34192	-281.66809	1177.21838	943.27643	-185.69435	1154.45581	856.38605	-283.61615	1090.70239	922.75745	-302.02209	990.53448	829.29810	-285.97110	928.88617	853.45490	-325.59595	895.79889	808.46039	-285.20486	871.62433	792.26788	-259.04373	826.37598	785.08948	-262.80792	776.57019	833.84344	-336.45859	796.31097	834.91797	-304.31369	738.44434	839.78888	-244.73714	741.06506	966.60944	-18.58352	1122.26721	767.03949	167.88292	1065.47742	776.00885	-183.70840	1074.30310	758.36066	149.50351	686.32953	685.72803	53.03860	593.84985	723.18372	117.40910	530.33203	747.14642	8.94113	530.10944	720.04498	70.04015	313.13644	811.69867	107.15782	85.22744	801.51532	3.24040	106.47415	875.98059	64.56777	48.20013	641.59930	62.60171	42.53032	705.75055	26.72850	80.24589	749.33234	-198.94005	686.38965	735.61633	-192.35730	533.95172	738.00439	-81.68106	512.13281	848.36780	-155.08676	350.43552	1079.65674	-173.89641	225.00504	1022.02118	-84.79683	210.75575	1126.56555	-101.15878	223.91350	983.96722	-165.24930	71.71384	987.99536	-126.80060	141.32159																																																																																																																															
226	1.875	638.74359	-17.05695	1784.65784	532.83923	-8.80282	1667.45190	766.54370	-24.66916	1706.19702	614.62518	-20.83535	1489.23511	854.16949	-18.15045	1578.34595	751.59100	99.38228	1499.01831	749.03564	-145.84552	1489.27148	799.83862	205.18584	1488.51501	799.64978	-249.34373	1489.55505	914.85529	78.19350	1485.24463	921.16882	-112.33391	1481.30493	942.27081	83.19806	1395.00293	828.92426	241.67833	1347.48828	883.96368	275.94159	1164.35779	886.13989	178.94560	1153.23071	785.28101	264.91544	1102.12756	836.82935	280.96664	966.83478	727.88507	260.43723	937.77051	718.49127	307.96887	913.05347	710.87390	257.17523	888.27490	713.30975	234.28305	839.04309	718.83105	238.95045	786.62610	699.39368	331.04868	833.77344	742.33826	303.33435	769.24811	763.60864	253.01767	797.38190	862.52161	-273.09399	1346.05408	932.20703	-278.50558	1177.18079	941.21295	-184.32146	1155.75989	852.64612	-281.13736	1091.75696	919.58496	-299.88000	990.77051	825.69952	-283.86716	928.85199	849.74274	-323.09213	896.41315	804.55927	-283.34854	873.42639	788.50684	-256.71252	827.76361	781.04199	-260.01624	777.74384	830.66589	-333.76633	796.75366	830.80914	-300.64178	739.04694	833.94434	-241.82224	741.53046	962.42529	-17.35253	1123.21313	762.57520	169.46028	1065.24121	771.23206	-182.33534	1075.20874	755.02161	149.57309	686.02734	684.63354	53.81863	593.44934	722.24139	117.95200	529.82483	744.26465	9.40231	530.01837	718.64893	70.67676	312.67340	811.49377	106.81657	85.11115	801.94586	4.60839	106.86469	875.98059	64.56777	48.20013	641.67242	62.84658	42.62075	705.63495	26.90304	80.13988	741.21796	-197.68010	687.67572	724.74847	-192.01704	535.57062	729.39362	-80.36309	513.04242	838.04132	-153.75728	351.32291	1068.94043	-172.94159	225.58098	1010.64502	-83.69610	212.04312	1115.32410	-101.47365	224.10620	970.86530	-166.06830	73.48727	977.21259	-125.95233	142.52193																																																																																																																															
227	1.883	633.14709	-13.80992	1784.94250	528.30688	-8.13466	1667.11755	762.07410	-22.60207	1706.41150	610.40686	-18.33263	1489.08508	850.49438	-18.03401	1578.50647	746.97528	100.62295	1499.34290	744.04413	-144.64966	1490.31421	794.55505	207.20973	1489.33289	795.32605	-248.43907	1489.85706	909.69629	80.38345	1485.66479	916.70673	-111.35121	1482.35339	937.64465	84.75056	1395.05969	824.32513	242.41794	1348.58362	879.06799	278.57156	1164.80188	877.15161	180.00156	1152.77612	777.51630	268.01129	1103.90369	829.54779	282.85867	967.20587	719.19849	263.06790	939.12677	707.74963	308.92593	914.77173	699.96503	256.61523	890.31909	704.96649	233.52333	841.43542	711.56604	235.59563	791.06799	692.37689	329.20438	833.50720	734.72241	301.26822	769.68384	762.53094	252.05472	799.77124	859.41779	-272.43143	1345.60205	928.63019	-276.85861	1178.06372	937.72382	-182.58116	1156.66760	848.55511	-279.96384	1092.68127	915.98706	-297.99283	990.97192	821.87903	-281.33865	929.22247	845.97333	-321.58173	897.90796	800.70496	-280.86234	874.25604	784.61188	-254.84187	828.90582	775.61969	-257.60571	779.40570	826.74695	-330.80014	797.33997	826.44312	-298.83008	739.93292	832.19501	-239.91974	742.56439	957.66693	-17.06279	1123.90771	757.29468	169.57809	1065.44897	767.14948	-181.38112	1075.87683	752.60370	150.25008	686.40643	682.94971	54.41992	592.38062	721.09448	118.76460	529.98492	742.53851	9.51627	529.57892	717.88983	70.79825	312.24582	811.46838	106.78002	84.91137	802.10474	4.75239	106.80768	876.28992	64.52596	48.40456	641.55273	63.10643	42.38472	705.40320	27.07650	80.18901	732.95459	-196.81773	689.02887	714.88855	-190.55917	537.15143	719.71368	-79.05306	516.44507	826.44525	-152.69969	352.25507	1057.35437	-171.53519	224.42940	998.84070	-83.92554	211.38481	1104.21021	-100.84482	223.48819	956.10938	-165.04323	74.64121	963.02570	-125.35766	143.45404																																																																																																																															
228	1.892	628.81738	-15.06265	1785.09790	523.67328	-7.15141	1668.32495	757.42108	-22.42519	1706.89136	605.98218	-17.48530	1490.36902	845.39478	-16.03088	1578.62317	742.02020	101.56313	1500.33936	739.42719	-143.77846	1490.80945	790.12714	207.24402	1489.93677	791.53748	-246.16553	1490.02454	905.77686	80.35490	1485.97278	912.35895	-110.77036	1483.43689	933.51062	84.80433	1395.33167	819.36517	244.09158	1349.19873	872.19751	279.06448	1164.88745	872.37762	182.30870	1152.80750	769.96942	270.45422	1105.97034	822.06335	285.11081	967.53638	711.16937	265.06848	941.52881	699.87463	309.87653	915.42609	691.36328	257.45975	894.44714	696.68689	232.36337	845.81201	706.75818	230.00391	792.36859	683.70142	328.31516	834.12183	726.58038	296.61322	771.03790	757.74341	253.59567	800.82678	854.99792	-271.98575	1346.25708	924.40240	-276.69177	1178.85986	934.00861	-181.77916	1157.00366	845.85590	-278.06158	1092.96643	911.97131	-295.47406	991.81860	818.43347	-278.80527	931.03345	842.48291	-320.19733	898.02759	796.29431	-278.26465	875.20630	779.76245	-252.82034	829.65692	772.11066	-254.89346	779.51184	822.40149	-329.22797	798.22687	822.86652	-295.54550	740.90698	827.22009	-236.90987	742.83569	952.89270	-15.97326	1123.63855	751.91052	170.59773	1066.42285	761.80066	-181.69231	1076.99097	749.50354	151.67778	686.60071	681.02515	54.23476	591.74731	720.43640	119.21877	529.99890	742.10046	10.39072	529.85535	717.50580	71.67155	311.98492	811.60034	106.70626	84.97029	802.24152	4.88074	106.84087	876.11810	64.54785	48.28994	641.51849	63.12103	42.22219	705.62280	27.01651	80.11858	724.51288	-195.27252	690.48047	705.11578	-189.81180	538.32776	713.89386	-78.70734	517.71747	814.53076	-151.68088	352.72745	1044.41528	-171.32483	223.66115	985.84412	-81.86098	210.33167	1091.55823	-99.86784	220.74379	941.62061	-164.02025	75.55755	950.57965	-124.36546	144.02792																																																																																																																															
